cyclingleg_states
version=1
nRows=12
nColumns=49
inDegrees=yes

# SIMM Motion File Header:
name cyclingleg_states
datacolumns 49
datarows 12
otherdata 1
range 1.36687738 1.37067001
endheader
time	bb/crank_angle/value	bb/crank_angle/speed	spindle/pedal_angle_r/value	spindle/pedal_angle_r/speed	ground_pelvis/pelvis_tilt/value	ground_pelvis/pelvis_tilt/speed	ground_pelvis/pelvis_list/value	ground_pelvis/pelvis_list/speed	ground_pelvis/pelvis_rotation/value	ground_pelvis/pelvis_rotation/speed	ground_pelvis/pelvis_tx/value	ground_pelvis/pelvis_tx/speed	ground_pelvis/pelvis_ty/value	ground_pelvis/pelvis_ty/speed	ground_pelvis/pelvis_tz/value	ground_pelvis/pelvis_tz/speed	hip_r/hip_angle_r/value	hip_r/hip_angle_r/speed	hip_r/hip_adduction_r/value	hip_r/hip_adduction_r/speed	hip_r/hip_rotation_r/value	hip_r/hip_rotation_r/speed	knee_r/knee_angle_r/value	knee_r/knee_angle_r/speed	knee_r/tib_tx_r/value	knee_r/tib_tx_r/speed	knee_r/tib_ty_r/value	knee_r/tib_ty_r/speed	tib_pat_r/pat_angle_r/value	tib_pat_r/pat_angle_r/speed	tib_pat_r/pat_tx_r/value	tib_pat_r/pat_tx_r/speed	tib_pat_r/pat_ty_r/value	tib_pat_r/pat_ty_r/speed	ankle_r/ankle_angle_r/value	ankle_r/ankle_angle_r/speed	subtalar_r/subtalar_angle_r/value	subtalar_r/subtalar_angle_r/speed	mtp_r/mtp_angle_r/value	mtp_r/mtp_angle_r/speed	bifemlh_r/activation	bifemlh_r/fiber_length	bifemsh_r/activation	bifemsh_r/fiber_length	glut_max2_r/activation	glut_max2_r/fiber_length	vas_int_r/activation	vas_int_r/fiber_length
      1.36687738	   -961.66550256	   -801.70505162	    945.93950668	    554.30664839	      0.00000000	      0.00000000	     -0.00000000	     -0.00000000	     -0.00000000	     -0.00000000	     -0.10000000	      0.00000000	     -0.05000000	     -0.00000000	      0.00000000	      0.00000000	     47.28554719	    193.52536637	      4.32454035	     -2.40606394	     -1.15518942	    -36.36737173	    -84.67001861	   -474.17777953	      0.00444407	     -0.04616896	     -0.48409170	     -0.16354273	     17.55212724	      0.94853644	      0.03474734	     -0.17240285	     -0.02253961	     -0.01051427	     22.15342613	     35.28676893	      0.00000000	      0.00000000	      0.00000000	     -0.00000000	      0.02000584	      0.11218791	      0.02000128	      0.15394608	      0.02000000	      0.13515845	      0.02000002	      0.14487702
      1.36721598	   -961.93664569	   -799.84177982	    946.12717359	    554.17496096	      0.00000000	      0.00000000	     -0.00000000	     -0.00000000	     -0.00000000	     -0.00000000	     -0.10000000	      0.00000000	     -0.05000000	     -0.00000000	      0.00000000	      0.00000000	     47.35107425	    193.51935188	      4.32372416	     -2.41483839	     -1.16748815	    -36.27689198	    -84.83033619	   -472.76109220	      0.00442838	     -0.04655529	     -0.48414700	     -0.16309742	     17.55245209	      0.97018824	      0.03468900	     -0.17214618	     -0.02254320	     -0.01072689	     22.16542908	     35.60986391	      0.00000000	      0.00000000	      0.00000000	     -0.00000000	      0.02000582	      0.11218518	      0.02000127	      0.15387736	      0.02000000	      0.13520516	      0.02000002	      0.14501203
      1.36755458	   -962.20715989	   -797.99332931	    946.31479667	    554.05002300	      0.00000000	      0.00000000	     -0.00000000	     -0.00000000	     -0.00000000	     -0.00000000	     -0.10000000	      0.00000000	     -0.05000000	     -0.00000000	      0.00000000	      0.00000000	     47.41659922	    193.51381740	      4.32290503	     -2.42349401	     -1.17975633	    -36.18709111	    -84.99017474	   -471.35026184	      0.00441255	     -0.04693826	     -0.48420215	     -0.16265276	     17.55278420	      0.99134263	      0.03463076	     -0.17188988	     -0.02254687	     -0.01093524	     22.17754095	     35.93023568	      0.00000000	      0.00000000	      0.00000000	     -0.00000000	      0.02000579	      0.11218279	      0.02000126	      0.15380905	      0.02000000	      0.13525183	      0.02000002	      0.14506338
      1.36789567	   -962.47903050	   -796.12108166	    946.50375606	    553.91349464	      0.00000000	      0.00000000	     -0.00000000	     -0.00000000	     -0.00000000	     -0.00000000	     -0.10000000	      0.00000000	     -0.05000000	     -0.00000000	      0.00000000	      0.00000000	     47.48260361	    193.50264588	      4.32207693	     -2.43201752	     -1.19208399	    -36.09617217	    -85.15070518	   -469.92015524	      0.00439647	     -0.04731917	     -0.48425755	     -0.16220040	     17.55312589	      1.01212471	      0.03457217	     -0.17162666	     -0.02255064	     -0.01114053	     22.18985097	     36.24909828	      0.00000000	      0.00000000	      0.00000000	     -0.00000000	      0.02000577	      0.11218072	      0.02000126	      0.15374063	      0.02000000	      0.13529883	      0.02000002	      0.14519918
      1.36823676	   -962.75026456	   -794.26400737	    946.69266969	    553.78387682	      0.00000000	      0.00000000	     -0.00000000	     -0.00000000	     -0.00000000	     -0.00000000	     -0.10000000	      0.00000000	     -0.05000000	     -0.00000000	      0.00000000	      0.00000000	     47.54860416	    193.49204030	      4.32124595	     -2.44042240	     -1.20438073	    -36.00594466	    -85.31074856	   -468.49618633	      0.00438027	     -0.04769670	     -0.48431280	     -0.16174880	     17.55347460	      1.03241452	      0.03451368	     -0.17136388	     -0.02255447	     -0.01134159	     22.20226928	     36.56524208	      0.00000000	      0.00000000	      0.00000000	     -0.00000000	      0.02000574	      0.11217900	      0.02000125	      0.15367262	      0.02000000	      0.13534579	      0.02000002	      0.14524964
      1.36858057	   -963.02301253	   -792.38170503	    946.88303883	    553.64220847	      0.00000000	      0.00000000	     -0.00000000	     -0.00000000	     -0.00000000	     -0.00000000	     -0.10000000	      0.00000000	     -0.05000000	     -0.00000000	      0.00000000	      0.00000000	     47.61512486	    193.47565792	      4.32040550	     -2.44869555	     -1.21674402	    -35.91452729	    -85.47157147	   -467.05193502	      0.00436380	     -0.04807227	     -0.48436833	     -0.16128916	     17.55383299	      1.05234026	      0.03445481	     -0.17109391	     -0.02255840	     -0.01153965	     22.21489477	     36.87998011	      0.00000000	      0.00000000	      0.00000000	     -0.00000000	      0.02000571	      0.11217760	      0.02000125	      0.15360449	      0.02000000	      0.13539310	      0.02000002	      0.14538622
      1.36892437	   -963.29511551	   -790.51492851	    947.07336012	    553.50760834	      0.00000000	      0.00000000	     -0.00000000	     -0.00000000	     -0.00000000	     -0.00000000	     -0.10000000	      0.00000000	     -0.05000000	     -0.00000000	      0.00000000	      0.00000000	     47.68163992	    193.45992390	      4.31956222	     -2.45685012	     -1.22907598	    -35.82381378	    -85.63189863	   -465.61409896	      0.00434721	     -0.04844442	     -0.48442370	     -0.16083041	     17.55419814	      1.07177855	      0.03439603	     -0.17082444	     -0.02256240	     -0.01173353	     22.22762799	     37.19200036	      0.00000000	      0.00000000	      0.00000000	     -0.00000000	      0.02000569	      0.11217655	      0.02000124	      0.15353676	      0.02000000	      0.13544037	      0.02000002	      0.14543587
      1.36927106	   -963.56885280	   -788.62174239	    947.26523158	    553.36050417	      0.00000000	      0.00000000	     -0.00000000	     -0.00000000	     -0.00000000	     -0.00000000	     -0.10000000	      0.00000000	     -0.05000000	     -0.00000000	      0.00000000	      0.00000000	     47.74870734	    193.43826573	      4.31870905	     -2.46487178	     -1.24147988	    -35.73185054	    -85.79307065	   -464.15515794	      0.00433035	     -0.04881462	     -0.48447938	     -0.16036334	     17.55457304	      1.09085710	      0.03433686	     -0.17054754	     -0.02256651	     -0.01192445	     22.24057612	     37.50266621	      0.00000000	      0.00000000	      0.00000000	     -0.00000000	      0.02000566	      0.11217583	      0.02000124	      0.15346888	      0.02000000	      0.13548801	      0.02000002	      0.14557319
      1.36961775	   -963.84193599	   -786.74443014	    947.45705295	    553.22061982	      0.00000000	      0.00000000	     -0.00000000	     -0.00000000	     -0.00000000	     -0.00000000	     -0.10000000	      0.00000000	     -0.05000000	     -0.00000000	      0.00000000	      0.00000000	     47.81576724	    193.41733448	      4.31785313	     -2.47277478	     -1.25385200	    -35.64060329	    -85.95373773	   -462.70290492	      0.00431337	     -0.04918139	     -0.48453490	     -0.15989727	     17.55495447	      1.10945288	      0.03427778	     -0.17027120	     -0.02257067	     -0.01211121	     22.25363147	     37.81061255	      0.00000000	      0.00000000	      0.00000000	     -0.00000000	      0.02000564	      0.11217545	      0.02000123	      0.15340141	      0.02000000	      0.13553562	      0.02000002	      0.14562214
      1.36996746	   -964.11673609	   -784.83978714	    947.65049364	    553.06778945	      0.00000000	      0.00000000	     -0.00000000	     -0.00000000	     -0.00000000	     -0.00000000	     -0.10000000	      0.00000000	     -0.05000000	     -0.00000000	      0.00000000	      0.00000000	     47.88340277	    193.39032788	      4.31698701	     -2.48054223	     -1.26629972	    -35.54805888	    -86.11529234	   -461.22891971	      0.00429610	     -0.04954617	     -0.48459073	     -0.15942268	     17.55534566	      1.12768983	      0.03421828	     -0.16998721	     -0.02257494	     -0.01229503	     22.26690797	     38.11720582	      0.00000000	      0.00000000	      0.00000000	     -0.00000000	      0.02000561	      0.11217540	      0.02000122	      0.15333378	      0.02000000	      0.13558360	      0.02000002	      0.14576015
      1.37031717	   -964.39087246	   -782.95135781	    947.84388184	    552.92232239	      0.00000000	      0.00000000	     -0.00000000	     -0.00000000	     -0.00000000	     -0.00000000	     -0.10000000	      0.00000000	     -0.05000000	     -0.00000000	      0.00000000	      0.00000000	     47.95102887	    193.36412276	      4.31611819	     -2.48819090	     -1.27871519	    -35.45624206	    -86.27633240	   -459.76188916	      0.00427871	     -0.04990747	     -0.48464640	     -0.15894919	     17.55574314	      1.14544864	      0.03415888	     -0.16970386	     -0.02257927	     -0.01247472	     22.28029118	     38.42107581	      0.00000000	      0.00000000	      0.00000000	     -0.00000000	      0.02000558	      0.11217555	      0.02000122	      0.15326657	      0.02000000	      0.13563156	      0.02000002	      0.14580846
      1.37067001	   -964.66679291	   -781.03478438	    948.03894848	    552.76346890	      0.00000000	      0.00000000	     -0.00000000	     -0.00000000	     -0.00000000	     -0.00000000	     -0.10000000	      0.00000000	     -0.05000000	     -0.00000000	      0.00000000	      0.00000000	     48.01925034	    193.33168756	      4.31523892	     -2.49570068	     -1.29120923	    -35.36308568	    -86.43829330	   -458.27257942	      0.00426104	     -0.05026673	     -0.48470240	     -0.15846700	     17.55615039	      1.16284808	      0.03409906	     -0.16941264	     -0.02258370	     -0.01265145	     22.29390124	     38.72357139	      0.00000000	      0.00000000	      0.00000000	     -0.00000000	      0.02000556	      0.11217590	      0.02000121	      0.15319919	      0.02000000	      0.13567990	      0.02000002	      0.14594712
